<svg id="line" height="512" viewBox="0 0 64 64" width="512" xmlns="http://www.w3.org/2000/svg"><g fill="#c4a2fc"><path d="m59.5 29h-6v10a1 1 0 0 1 -1 1h-6a1 1 0 0 1 -1-1v-10h-7v34h21a3 3 0 0 0 3-3v-28a3 3 0 0 0 -3-3z"/><path d="m47.5 29h4v9h-4z"/><path d="m36.5 29h-13a3 3 0 0 0 -3 3v28a3 3 0 0 0 3 3h13z"/></g><path d="m42.5 41h-8.069a7.968 7.968 0 0 0 -8.809-6.949l-11.153-11.151a6.461 6.461 0 0 0 -.117-.768l10.207-11.138a4.971 4.971 0 0 0 2.694-.827l2.947 2.947c-.29.46-1.8 6.183-1.8 6.183a6.682 6.682 0 0 0 10.189 7.182 2.452 2.452 0 0 0 -.589-4.366l-2.5-.834v-1.555a4.5 4.5 0 0 0 2.724-2.724h1.555l.834 2.5a2.452 2.452 0 0 0 4.366.584 6.683 6.683 0 0 0 -7.179-10.184s-5.723 1.514-6.183 1.8l-2.95-2.947a5 5 0 1 0 -9.161-2.811l-12.097 11.088a6.5 6.5 0 0 0 -.009 12.939l11.029 11.031h-7.929a5.006 5.006 0 0 0 -5 5 2 2 0 0 0 2 2h38a2 2 0 0 0 2-2 5.006 5.006 0 0 0 -5-5zm-10.09 0h-11.82a5.993 5.993 0 0 1 11.82 0zm-13.275-2.122-9.18-9.178a6.524 6.524 0 0 0 4.245-4.245l9.18 9.18a8.048 8.048 0 0 0 -4.245 4.243zm-9.1-21.545 9.984-9.151a5.008 5.008 0 0 0 2.3 2.3l-8.8 9.6a6.522 6.522 0 0 0 -3.48-2.749zm27.333 6.677a.451.451 0 0 1 .108.8 4.683 4.683 0 0 1 -7.141-5.033l.324-1.295a4.461 4.461 0 0 0 2.841 1.467v2.051a1 1 0 0 0 .684.948zm-3.368-6.01a2.5 2.5 0 1 1 2.5-2.5 2.5 2.5 0 0 1 -2.5 2.5zm4.281-6.165a4.684 4.684 0 0 1 5.033 7.141.451.451 0 0 1 -.8-.108l-1.062-3.184a1 1 0 0 0 -.952-.684h-2.051a4.461 4.461 0 0 0 -1.463-2.841zm-13.781-8.835a3 3 0 1 1 -3 3 3 3 0 0 1 3-3zm-21 20.5a4.5 4.5 0 1 1 4.5 4.5 4.505 4.505 0 0 1 -4.5-4.5zm4 22.5a3 3 0 0 1 3-3h32a3.007 3.007 0 0 1 3 3z" fill="#151a6a"/><circle cx="8" cy="23.5" fill="#151a6a" r="1.5"/></svg>